# xmcd
#
# Track frame offsets:
#	150
#	15584
#	23476
#	38333
#	52757
#	68142
#	81844
#	100043
#	113123
#	126322
#	136848
#	150973
#	165870
#	169363
#	182685
#	191762
#	206244
#	216281
#	227845
#	239765
#	251547
#	262791
#	272506
#	284795
#	295702
#	308387
#	320229
#
# Disc length: 4448 seconds
#
# Revision: 1
# Processed by: cddbd v1.5.2PL0 Copyright (c) Steve Scherf et al.
# Submitted via: EasyCDDAExtractor 16.0.9.1
#
DISCID=71115e1b
DTITLE=Chet Atkins - Almost alone('96)/Pick on The Beatles
DYEAR=2014
DGENRE=instrumental
TTITLE0=Ave María (arreglado por Chet Atkins)
TTITLE1=Big foot
TTITLE2=Waiting for Susie
TTITLE3=A little Mark Musik
TTITLE4=Jam man
TTITLE5=I still write your name in the snow (C. Atkins-Billy Edd Wheeler)
TTITLE6=Pu, Unana Hulu (remembering Gabby)
TTITLE7=HAppy again
TTITLE8=Sweet Alla Lee
TTITLE9=Maybelle (fragmento)
TTITLE10=Mr. Bojangles (Jerry Jeff Walker)
TTITLE11=Cheek to cheek (Irving Berlin)
TTITLE12=You do something to me  (part. 1)
TTITLE13=You do something to me  (Cole Porter)
TTITLE14=Me siento bien
TTITLE15=Ayer
TTITLE16=Si cayera
TTITLE17=No puedes comprarme amor
TTITLE18=En cambio lloraré
TTITLE19=Cosas que dijimos hoy
TTITLE20=Anochecer de un dia agitado
TTITLE21=Perseguiré al sol
TTITLE22=Ella es una mujer
TTITLE23=Y yo la amo
TTITLE24=Michelle
TTITLE25=Ella te ama
TTITLE26=Te veré en mis sueños (G. Kahn-I.Jones) con Mark Knopfler
EXTD=
EXTT0=
EXTT1=
EXTT2=
EXTT3=
EXTT4=
EXTT5=
EXTT6=
EXTT7=
EXTT8=
EXTT9=
EXTT10=
EXTT11=
EXTT12=
EXTT13=
EXTT14=
EXTT15=
EXTT16=
EXTT17=
EXTT18=
EXTT19=
EXTT20=
EXTT21=
EXTT22=
EXTT23=
EXTT24=
EXTT25=
EXTT26=
PLAYORDER=
